<svg xmlns:dc="http://purl.org/dc/elements/1.1/" xmlns:cc="http://creativecommons.org/ns#" xmlns:rdf="http://www.w3.org/1999/02/22-rdf-syntax-ns#" xmlns:svg="http://www.w3.org/2000/svg" xmlns="http://www.w3.org/2000/svg" xmlns:sodipodi="http://sodipodi.sourceforge.net/DTD/sodipodi-0.dtd" xmlns:inkscape="http://www.inkscape.org/namespaces/inkscape" width="100" height="100" id="svg2" version="1.1" inkscape:version="0.48.2 r9819" sodipodi:docname="trooper.svg">
  <defs id="defs4"/>
  <sodipodi:namedview id="base" pagecolor="#ffffff" bordercolor="#666666" borderopacity="1.0" inkscape:pageopacity="0.0" inkscape:pageshadow="2" inkscape:zoom="0.53675866" inkscape:cx="236.20405" inkscape:cy="475.11966" inkscape:document-units="px" inkscape:current-layer="g2995" showgrid="false" inkscape:window-width="1362" inkscape:window-height="724" inkscape:window-x="4" inkscape:window-y="0" inkscape:window-maximized="1" fit-margin-top="0" fit-margin-left="0" fit-margin-right="0" fit-margin-bottom="0" inkscape:snap-global="false">
    <inkscape:grid type="xygrid" id="grid3764"/>
  </sodipodi:namedview>
  <metadata id="metadata7">
    <rdf:RDF>
      <cc:Work rdf:about="">
        <dc:format>image/svg+xml</dc:format>
        <dc:type rdf:resource="http://purl.org/dc/dcmitype/StillImage"/>
        <dc:title/>
      </cc:Work>
    </rdf:RDF>
  </metadata>
  <g inkscape:label="Ebene 1" inkscape:groupmode="layer" id="layer1" transform="translate(-350,-474.80307)">
    <g transform="matrix(-0.03022768,0,0,0.03022768,109.0054,370.38735)" id="g2995" style="stroke:#304650;stroke-opacity:1">
      <path id="path4667" style="font-size:medium;font-style:normal;font-variant:normal;font-weight:normal;font-stretch:normal;text-indent:0;text-align:start;text-decoration:none;line-height:normal;letter-spacing:normal;word-spacing:normal;text-transform:none;direction:ltr;block-progression:tb;writing-mode:lr-tb;text-anchor:start;baseline-shift:baseline;color:#304650;fill:#304650;fill-opacity:1;fill-rule:nonzero;stroke:none;stroke-width:19.60000038;marker:none;visibility:visible;display:inline;overflow:visible;enable-background:accumulate;font-family:Sans;-inkscape-font-specification:Sans" d="m -9677.8148,5884.0792 -151.1259,0 0,29.0316 151.1259,0 z m 356.0664,0 -151.1259,0 0,29.0316 151.1259,0 z m -356.0664,-66.3578 -151.1259,0 0,28.9304 151.1259,0 z m 356.0664,0 -151.1259,0 0,28.9304 151.1259,0 z m -356.0664,-66.459 -151.1259,0 0,29.0315 151.1259,0 z m 356.0664,0 -151.1259,0 0,29.0315 151.1259,0 z m -558.073,-643.5496 68.8863,126.9498 15.3756,28.2224 28.7281,-14.3641 104.9992,-52.2972 18.7137,-9.3063 c 5.2497,2.7986 10.6486,5.3073 16.1848,7.4855 9.5797,3.769 19.6055,6.5858 29.7396,8.3958 10.1341,1.81 20.358,2.6476 30.6501,2.4278 10.2921,-0.2198 20.6024,-1.5017 30.65,-3.7428 10.0477,-2.241 19.8238,-5.4351 29.2339,-9.6097 l 157.5999,-67.2682 63.6266,-10.9248 c 0.048,50.4761 0.1375,99.596 0.2022,150.2155 l -169.9407,45.5199 8.3959,31.2569 161.646,-43.2944 c 0.667,495.5783 1.6739,889.6908 2.1243,1041.7977 l -163.7703,-43.9014 -8.3959,31.257 172.2673,46.1268 c 0.056,18.7389 0.3035,103.4818 0.3035,103.4818 0.4369,31.4521 -12.1366,62.8449 -34.1905,85.2738 -22.0539,22.4289 -53.3129,35.6145 -84.768,35.7078 -31.4551,0.093 -62.7838,-12.9044 -84.9704,-35.202 -22.1866,-22.2976 -34.9465,-53.6173 -34.6962,-85.0716 0,0 -1.6423,-522.6236 -2.529,-1090.251 l -110.8661,0 c 0.065,363.5578 -1.0649,727.229 -4.7543,1091.0603 -0.1252,31.3521 -13.1842,62.448 -35.5055,84.4646 -22.3213,22.0166 -53.6195,34.6984 -84.9703,34.3928 -31.351,-0.3057 -62.3745,-13.5637 -84.2628,-36.0113 -21.887,-22.4476 -34.373,-53.8241 -33.887,-85.1727 0.429,-42.2767 0.853,-84.5663 1.214,-126.8486 l 7.486,28.02 186.6312,-49.9707 -8.3959,-31.257 -185.7213,49.7684 c 2.981,-350.9081 3.585,-702 3.338,-1053.2282 l 182.3833,48.8579 8.3959,-31.2569 -186.6312,-49.9707 -4.148,15.2744 c -0.03,-35.37 0.05,-70.7393 0,-106.1118 -17.636,23.7485 -44.38,40.4882 -73.438,46.0256 -29.058,5.5375 -60.1396,-0.1823 -85.2736,-15.7802 z m 448.6231,-63.6266 -139.4931,58.0631 11.1271,26.8061 139.5942,-58.0631 z m -25.39,-61.3001 -139.5942,58.0631 11.1271,26.705 139.4931,-58.0631 z m -25.5922,-61.3001 -139.4931,57.962 11.1271,26.8061 139.493,-57.9619 z m 196.5446,-164.3772 c 0,12.9846 0,27.1266 0,40.2598 l -134.233,23.0634 c -11.9635,2.0534 -23.6342,5.45 -34.7974,10.2166 l -76.4734,32.6733 75.2595,-54.4216 z m 38.0344,-208.8855 c 0,0 9.6933,78.515 63.7278,143.8427 l -288.8994,87.8027 -101.5599,73.3375 5.4624,14.3641 c -4.0186,2.9421 -7.4383,8.8234 -9.104,15.7802 l -51.0833,21.7484 c -19.0461,7.8202 -36.5306,19.525 -51.0834,34.0893 -14.5528,14.5644 -26.1832,32.0312 -33.9882,51.0834 -0.923,2.2532 -1.8137,4.4834 -2.6301,6.7774 l -26.1991,18.3091 12.6443,28.4246 -3.945,8.5982 10.3178,20.7369 c 0.4141,2.6811 0.9638,5.3353 1.5173,7.9912 2.1006,10.0779 5.1624,19.9687 9.2052,29.4362 7.547,17.674 18.4434,33.8895 31.8639,47.6441 l 3.7428,7.5866 -104.4934,52.095 -92.1526,-169.7385 -10.419,1.6185 -4.451,24.5807 -461.7726,276.1538 -6.474,-9.3063 -132.615,93.9732 6.373,9.5086 -59.681,42.1817 -22.457,-31.6616 59.58,-42.5863 2.833,4.1474 132.412,-93.8721 -19.523,-28.02 -30.953,-43.5979 21.04,-15.0721 31.358,43.8002 125.331,-89.2189 -3.439,-19.0172 25.188,-18.4103 16.589,10.3179 543.5068,-385.5025 3.0347,-46.0257 20.3322,3.3381 2.63,24.3784 57.8607,-41.069 109.3488,-15.7802 z m -291.226,-187.5418 c 50.4429,0.3056 186.2802,30.2568 216.978,72.5283 l 5.4624,7.7889 -24.783,87.7016 c 0,0 -2.3449,-66.6462 -4.3498,-72.7306 -30.7821,-59.6419 -230.9092,-93.9723 -233.1627,-91.3431 0.8808,-2.0552 16.9266,-4.084 39.8551,-3.9451 z m -206.0532,-172.4697 21.9507,21.9508 0,20.0286 6.6763,-0.1011 c 0.5058,0 1.0115,0 1.5173,0 l 50.8811,0.1011 c -29.2086,-9.4447 -56.4943,-23.7515 -81.0254,-41.9794 z m 332.5985,-2.63 c -25.5948,19.6201 -54.248,34.9206 -85.0717,44.8118 l 60.4909,0.1011 0,-20.3321 z m -87.3982,-258.3505 c -44.1406,0.2273 -99.7296,19.5273 -166.9062,70.404 -17.6775,16.5418 -34.4073,35.9177 -49.6671,58.5689 l -10.1156,-0.5058 c 22.8605,57.9107 65.6738,102.0926 117.239,120.6782 l 0,-9.4074 c -0.016,-7.8962 7.1759,-15.0882 15.0721,-15.0721 l 73.5399,0 c 7.896,-0.016 15.0882,7.1759 15.0721,15.0721 l 0,11.4306 c 62.4904,-19.8672 112.9081,-77.0071 132.311,-151.3283 -10.2621,-46.7029 -52.1871,-100.2228 -126.5452,-99.8402 z m -27.6153,-195.0272 c 50.4428,0.3055 134.4887,10.835 165.1864,53.1065 l 5.4624,7.7889 31.4592,89.3201 c 0,0 -58.587,-68.2648 -60.5919,-74.3492 -30.7821,-59.6419 -179.1178,-74.5505 -181.3714,-71.9213 0.8809,-2.0551 16.9267,-4.084 39.8553,-3.945 z m 3.3381,-17.0953 c -28.5043,-0.032 -57.1893,3.2875 -84.667,9.9133 -90.7706,21.8875 -166.3963,78.1152 -184.8106,168.9292 l 65.8521,122.8024 c 72.8547,-93.7515 172.2096,-130.7815 261.5874,-132.6144 66.4675,-1.363 127.9378,15.2911 171.0535,43.8001 -4.7814,-15.245 -10.0576,-32.0833 -15.5779,-49.2626 -17.2589,-53.7114 -34.1055,-104.7677 -36.4159,-111.7765 -46.6854,-34.1964 -111.3643,-51.7201 -177.0216,-51.7915 z m -56.1412,-95.3894 c 81.5907,0 155.3173,36.3599 207.9751,94.8836 17.4266,8.2616 33.8876,18.1178 48.858,29.6386 l 5.4624,7.6877 c 0,0 19.5098,59.2855 38.0344,116.9355 9.2623,28.8251 18.3508,57.2046 24.5807,77.7884 3.1149,10.2918 5.4966,18.5267 6.9797,24.2772 0.7416,2.8752 1.2565,4.6751 1.6185,7.6878 0.091,0.7532 0.1759,1.5378 0.1012,3.2369 -0.075,1.6992 2.075,5.41 -5.9683,12.0375 -4.0216,3.3139 -11.3021,4.1903 -15.0721,3.0347 -3.7699,-1.1556 -5.3148,-2.6718 -6.3728,-3.6416 -2.1159,-1.9399 -2.4325,-2.7591 -2.9335,-3.5405 -10.2837,-16.0409 -29.7178,-31.7749 -55.1296,-44.5083 l 0,147.3832 c -1.4507,2.5843 -2.9329,5.0521 -4.4508,7.5866 l 35.809,62.0083 -84.6669,0 c -5.7605,5.6359 -11.7346,11.0556 -17.9046,16.1848 l 101.6611,0 31.7627,31.7628 0,21.1413 c 7.4754,0.8512 14.8699,2.4116 22.0519,4.6532 7.6427,1.035 15.4192,2.274 23.1645,3.7427 73.8819,14.0104 157.5118,93.8331 207.5705,174.1893 10.9337,17.5917 17.1728,38.0716 17.9045,58.7712 l 16.9941,433.5513 c 6.0929,31.6588 -1.3856,65.7194 -20.1299,91.9501 -18.7443,26.2308 -48.493,44.2658 -80.4184,48.7568 l -277.8734,42.6876 -160.5334,68.5832 c -28.8673,13.1967 -63.0569,14.1871 -92.6581,2.7312 -29.6014,-11.456 -54.1987,-35.2441 -66.6613,-64.4359 -12.4627,-29.1917 -12.6052,-63.3559 -0.4046,-92.6582 12.2006,-29.3022 36.5568,-53.3221 66.0543,-65.0428 l 174.3916,-74.4502 c 9.1829,-3.9187 18.8596,-6.6787 28.7281,-8.1936 l 292.2374,-45.0141 c -3.0154,-12.884 -1.011,-42.2303 -7.7889,-40.9678 l -97.9182,16.7917 -1.7197,-47.6441 55.7365,-16.994 47.8464,-14.4653 -31.8638,-38.439 c -47.1986,-57.0631 -56.647,-127.4556 -56.647,-127.4556 l -6.8785,-54.8261 -45.2164,31.6616 -35.6067,24.9853 21.9508,-49.7684 c 7.7384,-17.5131 9.6638,-37.5852 5.3612,-56.2422 -4.3027,-18.657 -14.8094,-35.7946 -29.4362,-48.15 l 0,-179.4492 -103.583,0 0,145.4612 -158.6114,-36.416 c -5.8068,-1.3293 -11.7468,-2.0762 -17.7022,-2.2254 -7.884,-0.2311 -15.7981,0.5877 -23.4679,2.4278 l -149.8109,36.4158 0,-145.6634 -103.5827,0 0,180.5619 c -14.622,12.3365 -25.116,29.5132 -29.436,48.15 -4.321,18.6367 -2.443,38.6295 5.26,56.1412 l 101.964,231.1397 c 0,0 40.2688,14.6363 87.8028,27.7165 l -0.3035,5.1588 -180.9663,128.3661 c -0.196,-79.3369 -0.391,-158.6705 -0.607,-238.0183 l -62.514,-138.9873 c -4.243,26.2468 -10.741,70.6045 -12.645,114.002 -2.51,57.2195 -2.392,115.2161 -3.844,161.1402 l 44.913,126.444 -202.2086,143.4382 -75.259,-211.7179 c -5.28,-14.7956 -7.598,-30.6412 -6.778,-46.3291 l 41.474,-388.0315 c 0.595,-5.5684 4.848,-10.1042 7.789,-14.8698 50.059,-80.3563 133.79,-140.757 207.6706,-154.7675 11.082,-2.1014 22.01,-3.626 32.876,-4.8554 0.07,-0.01 0.132,-0.093 0.202,-0.1012 l 0.304,0 c 4.143,-0.8625 8.332,-1.5043 12.543,-1.922 l 0,-22.6586 31.763,-31.7628 100.8515,0 c -6.1767,-5.1333 -12.1377,-10.5448 -17.9045,-16.1848 l -142.73,0 89.4212,-154.8687 0,-236.501 c 50.7993,-90.6072 143.1721,-151.1259 248.5384,-151.1259 z m -387.1216,654.0698 -106.9206,106.8198 20.535,20.5346 106.9206,-106.82 z m 782.8409,5.5635 -20.5346,20.5344 106.9211,106.82 20.5345,-20.5345 z" inkscape:connector-curvature="0" sodipodi:nodetypes="ccccccccccccccccccccccccccccccccccccssssccccccccccccsssccccsssccccccccccccscccccccccccccccccccccccccccccccscccccccsccccccccccccccccccccccccccccccscccccsccccccccccccsccccccccccsscccccscsccsccccscccsssccscccccccccccccscccscccssscccccccccccccccscccccccccccscccccccscccccscscccccccccccscccccccccc"/>
    </g>
  </g>
</svg>